<?xml version="1.0" encoding="UTF-8"?>
<svg id="_图层_2" data-name="图层 2" xmlns="http://www.w3.org/2000/svg" viewBox="0 0 118.57 150.01">
  <defs>
    <style>
      .cls-1 {
        fill: #004b49;
        fill-rule: evenodd;
      }

      .cls-2 {
        fill: #898989;
      }
    </style>
  </defs>
  <g id="_图层_1-2" data-name="图层 1">
    <g>
      <path class="cls-1" d="M64.24,88.97c12.15,40.56,60.25,22.18,26.04,1.33-8.46-5.16-18.56-7.39-26.04-1.33Z"/>
      <path class="cls-2" d="M27.14,45.56c33.31,3.95,32.35,23.11,37.15,41.33,18.53-13.73,54,16.48,33.45,26.65-13.46,6.66-29.66-5.82-34.79-22.21-11.78,13.64,2.99,40.41,21.91,50.94,11.46,6.38,33.45,5.2,31.79-13.79-.89-10.17-5-17.97-7.33-22.53,27.96,41.91-13.74,58.72-40.76,29.12-10.16-11.13-19.54-33.15-6.37-46.36-4.88-17.91-4.07-35.49-36.36-39.32C2.51,46.63-7.56,24.15,6.32,0c.11,2.34-18.22,40.93,20.82,45.56h0ZM64.98,89.36c11.66,38.95,57.85,21.3,25,1.28-8.12-4.95-17.82-7.1-25-1.28Z"/>
    </g>
  </g>
</svg>